<?xml version="1.0" encoding="UTF-8"?> <svg xmlns="http://www.w3.org/2000/svg" width="80" height="53" viewBox="0 0 80 53" fill="none"><mask id="mask0_2001_1081" style="mask-type:alpha" maskUnits="userSpaceOnUse" x="0" y="0" width="80" height="53"><rect width="80" height="53" fill="#D9D9D9"></rect></mask><g mask="url(#mask0_2001_1081)"><path fill-rule="evenodd" clip-rule="evenodd" d="M11.6602 3.00019C11.6899 2.99731 11.8208 3.02783 11.9502 3.06769C12.0796 3.1079 12.2634 3.19694 12.358 3.26587C12.4527 3.33517 12.5962 3.49242 12.6764 3.61593C12.7568 3.73944 12.8699 3.95343 12.9276 4.09165C12.9852 4.22988 13.0751 4.48839 13.1274 4.66611C13.1792 4.84383 13.2452 5.19138 13.2738 5.43804C13.3021 5.68505 13.3409 6.14534 13.3597 6.46129C13.3844 6.86736 13.4217 7.14094 13.487 7.39478C13.5381 7.59225 13.6414 7.87445 13.7168 8.02202C13.8039 8.19328 13.8898 8.31032 13.9539 8.34515C14.0471 8.39649 14.0645 8.39434 14.2077 8.31571C14.2922 8.26939 14.4263 8.19723 14.5061 8.15594C14.6004 8.10711 14.7591 8.07156 14.9593 8.05469C15.1307 8.03997 15.3881 7.98719 15.5393 7.93549C15.6891 7.88451 15.8562 7.84286 15.9109 7.84322C15.9657 7.84322 16.023 7.82383 16.0378 7.79977C16.0527 7.77572 16.375 7.60661 16.7538 7.4235C17.1842 7.21598 17.4869 7.09104 17.5605 7.09032C17.6254 7.08996 17.7559 7.07165 17.8505 7.04939C17.9451 7.02749 18.3084 6.87562 18.6572 6.7119C19.0262 6.5392 19.5494 6.33096 19.9079 6.21391C20.2469 6.10369 20.7284 5.95864 20.9774 5.89186C21.2269 5.82472 21.6264 5.72563 21.8657 5.67141C22.1049 5.6172 22.9127 5.42834 23.6602 5.2517C24.4081 5.07505 25.3787 4.85963 25.8173 4.77274C26.256 4.6855 26.9006 4.5742 27.2494 4.52501C27.5985 4.47582 28.1285 4.41658 28.4276 4.39324C28.7441 4.36847 29.214 4.35985 29.5515 4.37242C29.8705 4.38463 30.2784 4.42017 30.4578 4.45177C30.6373 4.48372 30.9067 4.55014 31.056 4.59933C31.2058 4.64888 31.4258 4.74043 31.5455 4.80254C31.6651 4.86466 31.8692 5.02084 31.9994 5.14973C32.1458 5.29514 32.2749 5.46604 32.3391 5.5996C32.3963 5.71809 32.4649 5.92812 32.4913 6.06635C32.5182 6.20458 32.5918 6.61639 32.6548 6.98189C32.7509 7.5366 32.7669 7.70822 32.752 8.02309C32.7386 8.30673 32.7085 8.47584 32.6313 8.70526C32.5744 8.87329 32.421 9.22048 32.2905 9.47719C32.1596 9.7339 31.9269 10.1299 31.7735 10.3568C31.6198 10.5837 31.3544 10.9474 31.1833 11.1647C31.0122 11.3819 30.7787 11.6637 30.6649 11.7908C30.551 11.9183 30.319 12.1423 30.1497 12.2888C29.9804 12.4353 29.5152 12.7925 29.1164 13.0823C28.7177 13.372 27.0735 14.6347 25.4624 15.8878C23.8516 17.1408 22.2104 18.4082 21.8156 18.7044C21.4208 19.0006 20.7403 19.4928 20.3035 19.7984C19.8666 20.1036 18.7913 20.8389 17.914 21.432C17.0366 22.0251 16.2129 22.591 16.0831 22.689C15.9533 22.7873 15.6191 23.0627 15.3399 23.3015C15.0608 23.5399 14.6609 23.8698 14.4517 24.0346C14.2425 24.1994 14.0007 24.4001 13.9152 24.4813C13.8292 24.5621 13.7125 24.701 13.6552 24.79C13.5979 24.8791 13.5218 25.0486 13.4859 25.167C13.425 25.367 13.4206 25.5735 13.4246 28.0573C13.4272 29.5286 13.4558 31.7097 13.4892 32.9042C13.5222 34.0991 13.5588 36.3366 13.5707 37.8769C13.5867 39.9327 13.5791 41.0784 13.5417 42.1853C13.5138 43.0147 13.4924 44.2426 13.4942 44.914C13.4961 45.5854 13.5171 46.3771 13.5414 46.6733C13.5657 46.9695 13.6092 47.3734 13.6385 47.5708C13.6679 47.7683 13.7107 48.0674 13.7339 48.2351C13.7734 48.5216 13.7687 48.579 13.661 49.1686C13.5976 49.5143 13.5461 49.8292 13.5461 49.8687C13.5461 49.9082 13.5214 50.0252 13.4913 50.129C13.4554 50.2532 13.384 50.3735 13.2825 50.4819C13.1977 50.572 13.0469 50.684 12.9472 50.7307C12.8475 50.777 12.6028 50.8564 12.4034 50.907C12.1485 50.9716 11.9437 50.9993 11.7145 51C11.489 51.0004 11.3266 50.9799 11.1889 50.9336C11.0794 50.8966 10.9242 50.8334 10.8444 50.7932C10.7647 50.753 10.6102 50.6255 10.5011 50.5099C10.3757 50.3771 10.2571 50.2004 10.1792 50.0302C10.1114 49.8823 10.0178 49.5915 9.97144 49.384C9.9254 49.1764 9.83621 48.7 9.77386 48.3248C9.7028 47.8986 9.61398 47.508 9.53676 47.2836C9.45772 47.0535 9.41095 46.8474 9.40733 46.7092C9.40407 46.5907 9.41277 46.413 9.42618 46.3142C9.44105 46.2072 9.43416 46.0841 9.4095 46.009C9.3834 45.9297 9.3486 45.1416 9.31561 43.8728C9.2866 42.7669 9.25869 41.3534 9.25361 40.7312C9.2489 40.109 9.23005 39.5762 9.21228 39.5464C9.19416 39.5166 9.16696 39.0079 9.15138 38.4154C9.13579 37.823 9.10642 36.975 9.08612 36.5305C9.06582 36.0864 9.03899 35.1493 9.02666 34.4481C9.01252 33.641 9.02267 32.6138 9.05421 31.6476C9.08177 30.8086 9.0999 29.4672 9.09446 28.6676C9.08938 27.8681 9.07561 27.0681 9.04443 26.5673L8.75041 26.4416C8.58871 26.3727 8.41433 26.2747 8.36321 26.2248C8.3121 26.1745 8.25808 26.0775 8.24249 26.0093C8.22726 25.9408 8.10255 25.651 7.96551 25.3645C7.8281 25.078 7.69578 24.7549 7.67076 24.6464C7.63995 24.5114 7.63233 24.2903 7.64683 23.9463C7.65916 23.6498 7.69723 23.3184 7.73928 23.1385C7.77807 22.9708 7.84551 22.7285 7.88865 22.5999C7.93179 22.4714 8.02351 22.2535 8.09203 22.1152C8.16092 21.977 8.315 21.7429 8.435 21.5946C8.55464 21.4467 8.71669 21.2044 8.795 21.0561C8.87331 20.9082 8.97192 20.6575 9.01361 20.4996C9.07379 20.2737 9.10062 19.9941 9.1405 19.1891C9.16805 18.6265 9.21772 17.9641 9.25071 17.717C9.29059 17.4187 9.30437 17.1358 9.29204 16.8733C9.28189 16.6561 9.2489 16.3976 9.21881 16.2989C9.18872 16.2001 9.10968 16.0479 9.04334 15.9606C8.97736 15.873 8.84974 15.7628 8.75983 15.7151C8.62134 15.6415 8.56116 15.6311 8.36104 15.6454C8.17397 15.6591 7.9985 15.7154 7.50907 15.9197C7.1701 16.0612 6.68067 16.2482 6.42145 16.3348C6.16223 16.4216 5.81166 16.5197 5.64199 16.5531C5.41866 16.5965 5.21891 16.6087 4.91691 16.5965C4.58627 16.5836 4.44379 16.5602 4.22808 16.4838C4.07872 16.431 3.85213 16.3193 3.72452 16.2357C3.59726 16.152 3.43303 16.0188 3.35944 15.9398C3.2862 15.8608 3.18904 15.6993 3.14373 15.5808C3.09841 15.4623 3.0433 15.2763 3.02191 15.1679C2.98385 14.9765 2.98638 14.9643 3.10276 14.773C3.16874 14.6645 3.24669 14.5109 3.27533 14.4319C3.30433 14.3529 3.33261 14.1673 3.3482 13.7497L3.5824 13.5163C3.74337 13.3558 3.96307 13.1975 4.28536 13.0087C4.54277 12.8579 5.06374 12.5613 5.44259 12.3495C5.82145 12.1376 6.35982 11.8511 6.63897 11.7129C6.91813 11.5743 7.2281 11.4282 7.3278 11.388C7.45396 11.3373 7.59753 11.314 7.7991 11.3115C8.05252 11.3086 8.12321 11.2921 8.36104 11.1805C8.51077 11.1101 8.73482 10.9848 8.85953 10.9022C8.98424 10.8193 9.12672 10.6993 9.17675 10.6351C9.23367 10.5615 9.2895 10.4118 9.32721 10.2312C9.37688 9.9924 9.38884 9.65527 9.39826 8.23851C9.40443 7.27738 9.42582 6.43113 9.44721 6.29972C9.46824 6.17155 9.48201 5.76763 9.47839 5.40213C9.47222 4.86861 9.48346 4.69196 9.53386 4.50455C9.5683 4.37637 9.63355 4.19039 9.67851 4.09165C9.72346 3.99292 9.83295 3.83351 9.92177 3.73765C10.0106 3.64142 10.132 3.5373 10.1919 3.50643C10.2517 3.47555 10.5943 3.34989 10.9532 3.22782C11.3121 3.10538 11.6304 3.00306 11.6602 3.00019ZM24.7297 9.27361C24.4904 9.33393 23.9767 9.48042 23.5877 9.59926C23.1987 9.71774 22.5708 9.91916 22.1919 10.0466C21.8131 10.1741 21.1036 10.4186 20.6149 10.5902C20.1262 10.7618 19.3598 11.0275 18.9109 11.1808C18.4625 11.3341 17.8668 11.5291 17.5877 11.6138C17.3085 11.6989 16.8191 11.8644 16.5001 11.9822C15.9497 12.185 15.904 12.1958 15.6118 12.1919C15.3428 12.1879 15.2783 12.2001 15.1046 12.2863C14.9955 12.3409 14.79 12.4985 14.6478 12.6367C14.5061 12.7749 14.302 12.9613 14.1943 13.051C14.0725 13.1523 13.9608 13.2883 13.8988 13.4101C13.8441 13.5178 13.7752 13.7192 13.7455 13.8574C13.7143 14.0035 13.6911 14.3041 13.6904 14.5755C13.6896 14.8322 13.7165 15.3977 13.7498 15.8321C13.8064 16.5678 13.8064 16.6504 13.7506 17.0349C13.7179 17.2622 13.6907 17.5408 13.6907 17.6542C13.6904 17.7677 13.715 17.9091 13.7448 17.9684C13.7745 18.0276 13.8441 18.1091 13.8988 18.149C13.967 18.1992 14.0529 18.2219 14.1707 18.2208C14.2654 18.2204 14.4695 18.1953 14.6239 18.1655C14.8523 18.1213 14.919 18.093 14.981 18.0129C15.0227 17.9587 15.2022 17.8158 15.3798 17.6955C15.5571 17.5749 15.874 17.3792 16.0831 17.2604C16.2923 17.1419 16.7575 16.8866 17.1164 16.6938C17.5699 16.4497 18.0782 16.1287 18.7841 15.6397C19.3424 15.2533 20.1987 14.6548 20.6874 14.3102C21.1761 13.9655 21.7714 13.5379 22.0107 13.3598C22.2499 13.1814 23.0084 12.6051 23.6965 12.0791C24.3846 11.5528 25.2735 10.8821 25.6723 10.5888C26.0711 10.2954 26.4775 9.98163 26.5754 9.89187C26.6733 9.80211 26.7998 9.65599 26.8567 9.56695C26.9137 9.4779 26.9601 9.36517 26.9593 9.31562C26.9586 9.26643 26.9463 9.20683 26.9314 9.18314C26.9169 9.1598 26.8437 9.11528 26.769 9.0844C26.6737 9.04527 26.5221 9.02911 26.2614 9.03126C26.057 9.03306 25.7267 9.06322 25.5273 9.09876C25.3279 9.13431 24.969 9.21294 24.7297 9.27361ZM74.9596 10.8993C75.1565 10.8965 75.366 10.9191 75.5397 10.9622C75.6894 10.9995 75.9011 11.0709 76.011 11.1212C76.1208 11.1715 76.2717 11.2785 76.3463 11.3593C76.4649 11.4867 76.4776 11.5172 76.446 11.5955C76.4156 11.6709 76.4272 11.7082 76.5185 11.8289C76.5784 11.9079 76.7111 12.1301 77 12.6726L76.9579 12.9419C76.9329 13.1034 76.8673 13.3117 76.7934 13.4625C76.7053 13.6431 76.6059 13.7734 76.4406 13.9253C76.3141 14.0416 76.1368 14.173 76.0472 14.2172C75.9577 14.2613 75.664 14.3787 75.3947 14.4782C75.1253 14.5773 74.6932 14.7231 74.4339 14.802C74.1747 14.881 73.7179 15.0106 73.4188 15.0903C73.1197 15.1704 72.3856 15.3492 71.7874 15.4882C71.1892 15.6267 70.2919 15.8224 69.7934 15.9226C69.2949 16.0228 68.6913 16.1527 68.452 16.2116C68.2128 16.2705 67.8948 16.3588 67.7451 16.408C67.5957 16.4572 67.4079 16.5344 67.3282 16.5789C67.2484 16.6238 67.1628 16.7003 67.1382 16.7491C67.1095 16.8062 67.0936 17.0094 67.0932 17.3221C67.0932 17.5885 67.1182 18.0251 67.1483 18.2915C67.1788 18.5579 67.2096 19.0347 67.2169 19.3507C67.2241 19.6666 67.2582 20.1273 67.2926 20.3739C67.3387 20.7042 67.3485 20.9175 67.3292 21.1817C67.3147 21.3792 67.301 21.6054 67.2988 21.6844C67.2963 21.7634 67.3231 21.9573 67.3586 22.1152C67.405 22.3246 67.4318 22.685 67.4565 23.4437C67.4753 24.0163 67.5065 24.6464 67.5257 24.8439C67.5453 25.0414 67.562 25.3886 67.5634 25.6158C67.5645 25.8431 67.5888 26.2549 67.6178 26.5314C67.6468 26.8078 67.6708 27.1715 67.6711 27.3392C67.6718 27.5069 67.6544 27.7413 67.6331 27.8598C67.6037 28.0206 67.6048 28.1115 67.637 28.2188C67.6631 28.3043 67.6994 28.901 67.7269 29.6909C67.7527 30.4215 67.8002 31.2214 67.8325 31.4681C67.8647 31.7151 67.9209 32.3614 67.9572 32.9042C67.9934 33.4475 68.0137 33.8959 68.0021 33.9013C67.9902 33.9063 67.9854 33.9792 67.9909 34.0629C67.9963 34.1462 68.0659 35.0305 68.145 36.0279C68.2244 37.0253 68.3302 38.3016 68.3806 38.8642C68.4306 39.4268 68.5129 40.2914 68.5637 40.7851C68.6148 41.2859 68.6938 41.8414 68.7421 42.0417C68.8124 42.3336 68.8331 42.5415 68.8523 43.1547C68.8679 43.6559 68.8621 43.9931 68.8345 44.16C68.812 44.2982 68.7439 44.5162 68.6833 44.6447C68.6231 44.7732 68.4952 45.0073 68.3991 45.1653C68.303 45.3233 68.1439 45.5412 68.0453 45.65C67.9466 45.7588 67.7857 45.9006 67.6878 45.9656C67.5895 46.0306 67.4036 46.116 67.2738 46.1548C67.144 46.1939 66.9402 46.2259 66.8206 46.2255C66.701 46.2255 66.5215 46.2101 66.4218 46.1918C66.3221 46.1731 66.1427 46.1211 66.023 46.0762C65.9034 46.0309 65.7279 45.9329 65.6333 45.8579C65.5387 45.7832 65.4136 45.6532 65.3552 45.5692C65.2972 45.4852 65.2062 45.3035 65.1533 45.1653C65.1 45.0271 65.0336 44.8091 65.0057 44.6806C64.9774 44.5521 64.8411 43.3324 64.7023 41.9699C64.5634 40.6074 64.4315 39.2908 64.4086 39.0438C64.3811 38.7422 64.3329 38.4862 64.2618 38.2629C64.1741 37.9871 64.1559 37.8683 64.1552 37.5627C64.1548 37.3602 64.1211 36.9524 64.0805 36.6562C64.0399 36.36 63.9917 35.843 63.9736 35.5073C63.9554 35.1716 63.9072 34.703 63.867 34.4661C63.8264 34.2291 63.7938 33.9142 63.7941 33.7659C63.7948 33.618 63.8112 33.4281 63.8304 33.3441C63.8586 33.2227 63.8518 33.1452 63.7974 32.9671C63.76 32.8436 63.7118 32.5973 63.6904 32.4196C63.6694 32.2418 63.6422 31.8458 63.6299 31.5399C63.6179 31.234 63.5766 30.7087 63.5385 30.373C63.5005 30.0374 63.4522 29.4801 63.4312 29.1344C63.4105 28.789 63.3696 28.3445 63.3402 28.147C63.3112 27.9496 63.2869 27.6264 63.2869 27.429C63.2869 27.2315 63.2713 26.9891 63.2525 26.8904C63.234 26.7917 63.1774 26.4362 63.127 26.1005C63.077 25.7648 63.0107 25.2719 62.9799 25.0055C62.949 24.7391 62.8994 24.0845 62.8693 23.5514C62.8385 23.0031 62.7518 22.0596 62.6702 21.3792C62.5905 20.7179 62.5085 19.9179 62.4875 19.602C62.4669 19.286 62.4241 18.9065 62.3925 18.7583C62.361 18.6103 62.2758 18.3389 62.2033 18.1551C62.1003 17.8948 62.0594 17.8269 62.0169 17.8467C61.9869 17.8607 61.8379 17.8736 61.6856 17.8754C61.4749 17.8779 61.3919 17.8937 61.3412 17.9411C61.3038 17.9756 61.0453 18.0614 60.7662 18.1317C60.487 18.2021 60.1365 18.2754 59.9867 18.2944C59.8374 18.3134 59.5437 18.3436 59.3342 18.3612C59.0289 18.387 58.914 18.3827 58.7541 18.3389C58.5721 18.2894 58.5355 18.2901 58.3372 18.3461C58.1911 18.3877 58.0421 18.4024 57.884 18.3917C57.7208 18.3805 57.5704 18.3396 57.3946 18.2592C57.255 18.1956 57.0063 18.0474 56.8417 17.9303C56.6771 17.8129 56.4907 17.7048 56.4273 17.6901C56.3533 17.6729 56.283 17.6187 56.2294 17.5375C56.184 17.4686 56.1202 17.2988 56.0876 17.1605C56.0553 17.0223 56.0292 16.7882 56.0292 16.6399C56.0296 16.454 56.0586 16.2762 56.1235 16.0655C56.175 15.8978 56.217 15.7319 56.2167 15.6975C56.2163 15.663 56.287 15.5417 56.3736 15.4282C56.4603 15.3147 56.6028 15.1593 56.6909 15.0828C56.779 15.0063 56.965 14.8896 57.1045 14.8236C57.2441 14.7575 57.5541 14.6477 57.7934 14.5798C58.0326 14.5119 58.7588 14.3163 59.4067 14.1446C60.0549 13.973 61.2295 13.6736 62.0169 13.479C62.8044 13.284 63.9874 13.0018 64.6454 12.8514C65.3034 12.701 66.4048 12.4572 67.0925 12.3096C67.7802 12.1621 69.0694 11.8967 69.9566 11.7204C70.8437 11.5442 71.8798 11.3413 72.2587 11.2702C72.738 11.1801 73.0744 11.1374 73.3644 11.1298C73.6777 11.1219 73.8401 11.0997 74.017 11.0404C74.1464 10.9966 74.3422 10.9482 74.4521 10.9327C74.5619 10.9169 74.79 10.9018 74.9596 10.8993ZM53.5335 6.04768C53.5832 6.04732 53.6477 6.06635 53.6767 6.09005C53.7057 6.11374 53.7873 6.13421 53.858 6.13564C53.9537 6.13744 53.9961 6.15826 54.0229 6.21643C54.0505 6.27567 54.1125 6.30511 54.2767 6.33706C54.3964 6.36004 54.6001 6.41892 54.7299 6.46775C54.8597 6.51658 55.054 6.61603 55.1624 6.68856C55.2708 6.76108 55.4209 6.90111 55.4959 6.99984C55.5713 7.09858 55.6685 7.2763 55.712 7.39478C55.7744 7.56496 55.7914 7.6935 55.7932 8.00514C55.7947 8.25575 55.7718 8.51138 55.7309 8.70526C55.695 8.87329 55.592 9.22837 55.5017 9.49514C55.4115 9.7619 55.0881 10.5615 54.7832 11.2724C54.4783 11.9833 54.1266 12.7911 54.0016 13.0675C53.8761 13.344 53.6245 13.861 53.4422 14.2165C53.2598 14.5719 52.9795 15.081 52.82 15.3474C52.6602 15.6138 52.4252 16.0098 52.2973 16.2267C52.1276 16.5157 51.9826 16.7046 51.7571 16.9311C51.504 17.1853 51.4101 17.2546 51.2314 17.3196C51.1117 17.363 50.9486 17.4076 50.8688 17.4187C50.7811 17.4305 50.6375 17.414 50.5063 17.377C50.3867 17.3429 50.093 17.2194 49.8537 17.1024C49.5409 16.9494 49.344 16.8773 49.1533 16.8453C48.9651 16.8144 48.8723 16.7807 48.8343 16.7297C48.7991 16.6823 48.7879 16.6123 48.8009 16.5233C48.8161 16.4191 48.8042 16.3725 48.748 16.3168C48.7081 16.2773 48.6512 16.245 48.6211 16.245C48.5885 16.245 48.5526 16.1908 48.5319 16.1104C48.5127 16.0364 48.4725 15.8709 48.4431 15.7424C48.4134 15.6138 48.3789 15.388 48.3666 15.2397C48.3521 15.0666 48.363 14.8677 48.3963 14.6832C48.425 14.5252 48.5007 14.2667 48.5642 14.1087C48.6276 13.9508 48.8571 13.5145 49.0743 13.1393C49.2911 12.7642 49.5082 12.3681 49.5568 12.2597C49.6054 12.1513 49.6565 12.0059 49.671 11.9366C49.6851 11.8673 49.7917 11.617 49.9077 11.3801C50.0238 11.1431 50.138 10.8684 50.1608 10.7697C50.1869 10.6588 50.2975 10.4459 50.4497 10.2132C50.5857 10.006 50.9044 9.49693 51.1585 9.08225C51.4127 8.66756 51.7531 8.12183 51.9151 7.86943C52.0776 7.61702 52.3118 7.26984 52.4361 7.0975C52.5601 6.92516 52.7602 6.66738 52.8802 6.52412C53.0002 6.38086 53.176 6.21535 53.2707 6.15611C53.3653 6.09687 53.4835 6.04804 53.5335 6.04768ZM43.6362 14.2717C43.7859 14.2717 44.006 14.2969 44.1256 14.3278C44.2452 14.359 44.449 14.4394 44.5788 14.5069C44.7086 14.5748 44.8862 14.6986 44.9743 14.7823C45.062 14.8659 45.1871 14.9992 45.252 15.0781C45.3165 15.1571 45.4271 15.3348 45.4971 15.4731C45.5671 15.6113 45.6653 15.8458 45.7153 15.9937C45.7657 16.142 45.8397 16.4245 45.8799 16.622C45.9202 16.8195 45.9724 17.1993 45.9963 17.4657C46.0224 17.7619 46.0307 18.2014 46.017 18.5967C46.005 18.9521 45.9702 19.4853 45.9398 19.7815C45.9093 20.0777 45.8103 20.8773 45.7197 21.5587C45.6291 22.2402 45.475 23.3306 45.3771 23.9822C45.2788 24.6339 45.1661 25.4255 45.1258 25.7415C45.0856 26.0574 45.0323 26.526 45.0077 26.7827C44.9826 27.0394 44.9623 27.6857 44.9627 28.2188C44.9631 28.7631 44.9826 29.3379 45.0073 29.5293C45.0316 29.7171 45.0675 29.9551 45.0871 30.0589C45.107 30.1652 45.1621 30.2944 45.2132 30.3551C45.2741 30.4273 45.3365 30.4624 45.4036 30.4621C45.4771 30.4617 45.5555 30.4075 45.7026 30.2556C45.8582 30.0952 45.9727 29.9117 46.224 29.4216C46.4013 29.0762 46.7174 28.4784 46.9269 28.0932C47.1365 27.7079 47.5483 26.9651 47.842 26.4416C48.1357 25.9181 48.5845 25.1347 48.839 24.7003C49.0935 24.2659 49.4571 23.6598 49.6471 23.3539C49.8374 23.048 50.1235 22.6035 50.2826 22.3666C50.4421 22.1296 50.6459 21.8388 50.7354 21.7203C50.825 21.6018 50.9733 21.427 51.0646 21.3315C51.1563 21.236 51.2887 21.129 51.3583 21.0931C51.4279 21.0575 51.583 21.0087 51.7027 20.9843C51.8223 20.9599 52.1076 20.9405 52.3371 20.9408C52.5666 20.9415 52.8929 20.9674 53.0622 20.9983C53.2315 21.0292 53.4683 21.0877 53.5879 21.1282C53.7075 21.1688 53.8667 21.2421 53.9414 21.2905C54.0161 21.3394 54.1284 21.456 54.1912 21.5498C54.2539 21.6435 54.3311 21.7408 54.3634 21.7659C54.3956 21.7907 54.4627 21.8108 54.5124 21.8097C54.5791 21.8086 54.6853 21.8908 54.9173 22.1235C55.0932 22.2994 55.2588 22.5016 55.2929 22.582C55.3263 22.661 55.3774 22.8469 55.4057 22.9949C55.4343 23.1432 55.4735 23.6113 55.493 24.0361C55.5126 24.4608 55.5779 25.3652 55.6381 26.0467C55.6982 26.7281 55.7802 27.5683 55.8197 27.9137C55.8592 28.2594 55.9158 28.7035 55.9451 28.901C55.9745 29.0985 56.0412 29.4941 56.0934 29.7806C56.1452 30.0672 56.7888 32.6763 57.5229 35.5791C58.257 38.4819 58.9053 41.0105 58.9636 41.198C59.0216 41.3854 59.2163 41.9268 59.3961 42.4007C59.5763 42.8747 59.7659 43.3917 59.8181 43.5496C59.87 43.7076 59.9443 43.9744 59.9827 44.1421C60.0215 44.3097 60.0629 44.5521 60.0748 44.6806C60.0868 44.8091 60.0813 45.2131 60.0625 45.5782C60.0404 46.0083 60.0085 46.2995 59.9715 46.404C59.9403 46.4927 59.8533 46.6284 59.7783 46.7049C59.7036 46.7813 59.5687 46.8937 59.4792 46.954C59.3896 47.0143 59.1938 47.1073 59.0441 47.1608C58.8948 47.2143 58.6417 47.2779 58.4822 47.3016C58.3198 47.326 58.0964 47.3346 57.9746 47.3213C57.855 47.308 57.6918 47.2671 57.6121 47.2301C57.5323 47.1928 57.2811 46.9878 57.0538 46.7741C56.8268 46.5609 56.5179 46.2406 56.3675 46.0629C56.2174 45.8852 56.0093 45.6105 55.906 45.4525C55.8023 45.2946 55.6439 45.0199 55.5543 44.8422C55.4648 44.6645 55.3013 44.2929 55.1914 44.0164C55.0812 43.7399 54.9007 43.2473 54.7904 42.9213C54.6799 42.5953 54.5319 42.1027 54.462 41.8263C54.392 41.5498 54.2024 40.742 54.0407 40.0311C53.8786 39.3202 53.6426 38.3106 53.5154 37.7871C53.3881 37.2637 53.1525 36.2217 52.9915 35.4714C52.8305 34.721 52.5996 33.6629 52.4782 33.1197C52.3567 32.5768 52.1675 31.7851 52.0573 31.3604C51.9217 30.8366 51.8423 30.4441 51.8111 30.1397C51.7857 29.893 51.7426 29.6202 51.7157 29.5333C51.6885 29.4467 51.5954 29.2934 51.5084 29.1922C51.4214 29.0913 51.33 28.9602 51.3053 28.901C51.2807 28.8418 51.2339 28.7732 51.2006 28.7484C51.1658 28.7222 51.1067 28.7139 51.0592 28.7287C51.0142 28.7423 50.9301 28.7947 50.8725 28.8454C50.8145 28.8956 50.7014 29.0338 50.6209 29.1523C50.5407 29.2708 50.4146 29.4403 50.3406 29.5293C50.2667 29.6184 50.1568 29.7799 50.0966 29.8884C50.0364 29.9968 49.9027 30.312 49.7997 30.5885C49.6964 30.8649 49.5637 31.1802 49.505 31.2886C49.4459 31.397 49.2501 31.6559 49.0696 31.863C48.8894 32.0702 48.6998 32.3208 48.649 32.4196C48.5983 32.5183 48.5051 32.7204 48.442 32.8683C48.3789 33.0166 48.2118 33.3071 48.0708 33.5146C47.9294 33.7221 47.6876 34.1178 47.5335 34.3942C47.3794 34.6707 46.9889 35.3087 46.6659 35.8124C46.3429 36.3162 46.0202 36.8249 45.9488 36.9434C45.8778 37.0619 45.7607 37.2759 45.6885 37.4191C45.6164 37.5624 45.4942 37.837 45.4166 38.0295C45.339 38.2219 45.1668 38.6704 45.0341 39.0258C44.9011 39.3812 44.7281 39.8053 44.6495 39.9683C44.5393 40.1959 44.441 40.3298 44.2253 40.5474C44.0709 40.7029 43.8385 40.8975 43.7087 40.9797C43.5789 41.0623 43.3672 41.1617 43.2374 41.2008C43.1076 41.24 42.8466 41.2899 42.6573 41.3114C42.4032 41.3405 42.2034 41.3398 41.896 41.3093C41.6665 41.2866 41.3446 41.236 41.18 41.1972C41.0154 41.1581 40.8522 41.1118 40.8174 41.0942C40.7826 41.077 40.6075 40.8303 40.4284 40.5467C40.1239 40.0648 40.1018 40.0171 40.0916 39.8157C40.0858 39.6972 40.0467 39.2287 40.005 38.7745C39.9412 38.0783 39.9328 37.808 39.9528 37.0511C39.9655 36.5574 40.0003 35.8063 40.03 35.3816C40.0597 34.9569 40.117 34.2786 40.1569 33.8736C40.1971 33.4687 40.2943 32.5481 40.3729 31.8271C40.452 31.1062 40.5412 30.2743 40.5713 29.9781C40.6013 29.6819 40.8145 27.2746 41.0451 24.6285C41.2757 21.9824 41.4957 19.5345 41.5345 19.1891C41.5733 18.8437 41.6219 18.0922 41.6426 17.5196C41.6629 16.9469 41.702 16.3409 41.7288 16.1732C41.7557 16.0055 41.8166 15.7327 41.8641 15.5671C41.9181 15.3787 41.9743 15.2544 42.0138 15.235C42.049 15.2178 42.0773 15.1636 42.0773 15.114C42.0773 15.0649 42.1059 15.0042 42.1411 14.9794C42.1762 14.9546 42.2538 14.8728 42.3133 14.7974C42.3919 14.6983 42.4916 14.6326 42.6754 14.5586C42.815 14.5026 43.0271 14.4154 43.1467 14.3644C43.3157 14.2926 43.4248 14.2721 43.6362 14.2717ZM31.7086 16.6062C31.8587 16.6044 32.0697 16.6292 32.1799 16.6608C32.2894 16.6924 32.4594 16.7692 32.5573 16.8317C32.6552 16.8941 32.8267 17.0421 32.9387 17.1605C33.0507 17.279 33.211 17.4891 33.2947 17.6273C33.3785 17.7655 33.5028 18.0161 33.571 18.1838C33.6395 18.3515 33.7374 18.6423 33.7885 18.8301C33.8396 19.0178 33.9139 19.3568 33.9538 19.584C33.9937 19.8113 34.051 20.2152 34.0807 20.4816C34.1108 20.748 34.1518 21.1685 34.1721 21.4151C34.192 21.6621 34.225 22.1953 34.2449 22.5999C34.2649 23.0046 34.2982 23.7804 34.3193 24.3233C34.3407 24.8665 34.3726 25.8679 34.3907 26.5493C34.4157 27.4939 34.4374 27.839 34.482 28.0034C34.5143 28.1219 34.569 28.2835 34.6039 28.3625C34.6387 28.4414 34.7329 28.5786 34.8138 28.6676C34.899 28.761 35.0436 28.8658 35.1564 28.9164C35.3235 28.9904 35.4054 29.003 35.7147 29.0008C35.9141 28.9997 36.2893 28.9649 36.5485 28.924C36.8077 28.8831 37.1503 28.8396 37.3099 28.827C37.5154 28.8109 37.6789 28.8213 37.8718 28.8622C38.0215 28.8938 38.2173 28.9552 38.3068 28.9987C38.3964 29.0421 38.5802 29.1872 38.7147 29.3214C38.8916 29.4977 39 29.6471 39.1059 29.8614C39.1867 30.0244 39.2716 30.2625 39.2948 30.391C39.3267 30.5684 39.3267 30.6847 39.2944 30.8757C39.2708 31.0139 39.199 31.2319 39.1345 31.3604C39.0642 31.5004 38.9297 31.6803 38.7981 31.8099C38.6491 31.9568 38.474 32.0792 38.2525 32.1923C38.073 32.2835 37.4447 32.5797 36.8567 32.85C36.2686 33.1204 35.7161 33.3764 35.6295 33.4191C35.5428 33.4618 35.4138 33.5451 35.3431 33.6044C35.2572 33.6762 35.1437 33.8525 34.7902 34.5558L34.85 34.6725C34.883 34.7368 34.9167 34.8779 34.9247 34.9867C34.9327 35.0954 34.9262 35.3378 34.9098 35.5252C34.8932 35.7126 34.8921 36.1007 34.9066 36.3869C34.9211 36.673 34.9664 37.1983 35.0066 37.5538C35.0472 37.9092 35.2111 39.4602 35.3714 41.0005C35.5312 42.5408 35.6947 44.011 35.7346 44.2677C35.7741 44.5244 35.8383 44.9847 35.8767 45.291C35.9155 45.5972 35.9579 46.0658 35.9717 46.3322C35.9877 46.6467 35.9808 46.9494 35.9514 47.1939C35.9268 47.4014 35.8836 47.6595 35.8553 47.7683C35.8271 47.8771 35.7567 48.0627 35.6994 48.1812C35.632 48.3202 35.5196 48.4656 35.383 48.5909C35.2662 48.6979 35.0567 48.839 34.9171 48.905C34.7775 48.9707 34.5411 49.0504 34.3914 49.082C34.2109 49.1201 34.0343 49.1326 33.8657 49.119C33.7261 49.1079 33.5141 49.0662 33.3944 49.0267C33.2748 48.9872 33.079 48.8928 32.9594 48.8167C32.8397 48.7409 32.6621 48.5991 32.5646 48.5018C32.4667 48.4045 32.3373 48.2519 32.2763 48.1633C32.2154 48.0746 32.1009 47.8642 32.0222 47.6965C31.9435 47.5288 31.8344 47.2136 31.7797 46.9964C31.7249 46.7792 31.6542 46.4158 31.6223 46.1886C31.5904 45.9613 31.5386 45.4687 31.5074 45.0935C31.4759 44.7183 31.362 43.7166 31.254 42.8675C31.1459 42.0184 31.0169 40.9603 30.9672 40.5158C30.9175 40.0717 30.844 39.3364 30.8033 38.8822C30.7631 38.428 30.7055 37.6765 30.6754 37.2127C30.6453 36.7488 30.6043 36.3004 30.5847 36.2164C30.5648 36.1323 30.518 36.0031 30.4811 35.9291C30.4437 35.8552 30.3621 35.75 30.2998 35.6957C30.2371 35.6415 30.1167 35.5791 30.0319 35.5575C29.9423 35.5345 29.7864 35.5277 29.6603 35.5417C29.5395 35.555 29.0236 35.7069 28.5001 35.8828C27.9817 36.0569 27.4517 36.2393 27.3219 36.2878C27.1921 36.3363 26.9314 36.4497 26.7418 36.5398C26.5522 36.6296 26.2752 36.7829 26.1255 36.8798C25.9761 36.9768 25.7445 37.152 25.6107 37.269C25.4773 37.3861 25.2728 37.595 25.1564 37.7333C25.0404 37.8715 24.8214 38.1702 24.6703 38.3975C24.5191 38.6248 24.3132 38.964 24.2127 39.1515C24.1123 39.3389 23.9727 39.638 23.9024 39.8157C23.8321 39.9934 23.6903 40.4781 23.5877 40.8928C23.4848 41.3075 23.2973 41.986 23.1712 42.4007C23.045 42.8154 22.7013 43.8739 22.4073 44.7524C22.0176 45.9186 21.8189 46.4568 21.6728 46.7451C21.5009 47.084 21.4284 47.1834 21.1616 47.4466C20.9296 47.675 20.7766 47.7906 20.5605 47.9001C20.401 47.9812 20.14 48.0918 19.9804 48.1467C19.7861 48.2132 19.6186 48.2455 19.4729 48.2448C19.3532 48.2444 19.1941 48.2178 19.1194 48.1855C19.0447 48.1536 18.9331 48.0749 18.8718 48.0107C18.8102 47.9464 18.6931 47.797 18.6115 47.6786C18.5299 47.5601 18.4415 47.4107 18.415 47.3464C18.3885 47.2822 18.3385 47.2193 18.3037 47.2068C18.2689 47.1939 18.187 47.1332 18.1217 47.0721C18.0564 47.0107 17.9749 46.8797 17.9404 46.781C17.8915 46.6413 17.8784 46.4858 17.8802 46.0808C17.8821 45.7039 17.9049 45.4414 17.9636 45.1294C18.0082 44.8924 18.0912 44.5047 18.1489 44.2677C18.2062 44.0308 18.3265 43.5866 18.4164 43.2804C18.5064 42.9741 18.7536 42.2069 18.9657 41.575C19.1778 40.943 19.3746 40.3291 19.4026 40.2106C19.4308 40.0921 19.454 39.8782 19.4544 39.7349C19.4544 39.5812 19.4341 39.434 19.404 39.3759C19.3757 39.3216 19.3145 39.2409 19.2681 39.1963C19.2213 39.1522 19.1176 39.0929 19.0378 39.0653C18.9309 39.0283 18.783 39.0201 18.4759 39.0344C18.1619 39.0488 17.9828 39.0384 17.7508 38.9921C17.5815 38.9583 17.3285 38.8833 17.1889 38.8255C17.0493 38.7677 16.8372 38.6477 16.7176 38.5594C16.5979 38.4707 16.437 38.3214 16.3601 38.2273C16.2833 38.1332 16.1894 37.9957 16.1517 37.9218C16.114 37.8478 16.057 37.678 16.0255 37.5448C15.9856 37.3775 15.9755 37.2357 15.9925 37.087C16.0063 36.9685 16.053 36.7747 16.0962 36.6562C16.1397 36.5377 16.218 36.3679 16.2698 36.2792C16.3217 36.1905 16.4453 36.0289 16.5443 35.9201C16.6433 35.8114 16.8289 35.6541 16.9569 35.5708C17.0845 35.4871 17.4499 35.3155 17.7689 35.1895C18.088 35.0638 18.5325 34.9019 18.7569 34.8301C18.9813 34.7583 19.2829 34.684 19.4276 34.665C19.5722 34.6459 19.8372 34.614 20.0167 34.5939C20.1962 34.5738 20.4082 34.5353 20.488 34.5084C20.6149 34.4657 20.703 34.3695 21.1873 33.7448C21.4922 33.3516 21.791 32.9574 21.8508 32.8683C21.9193 32.7667 21.9523 32.6802 21.94 32.635C21.9273 32.5887 22.035 32.3262 22.242 31.8989C22.4193 31.5338 22.7521 30.8147 22.9819 30.3012C23.2121 29.7878 23.8158 28.3822 24.3237 27.1776C24.8316 25.9731 25.3895 24.6644 25.5636 24.2694C25.7379 23.8745 25.9489 23.4139 26.0327 23.2462C26.1164 23.0785 26.2629 22.7956 26.3579 22.6179C26.4779 22.3931 26.525 22.2675 26.5123 22.205C26.5014 22.1529 26.5551 21.9275 26.6403 21.6664C26.7208 21.4198 26.8306 21.1286 26.885 21.0202C26.939 20.9117 27.1685 20.4834 27.3951 20.0687C27.6217 19.654 27.9077 19.1047 28.031 18.848C28.1543 18.5913 28.3087 18.2359 28.374 18.0581C28.4671 17.8043 28.5244 17.7059 28.6412 17.5989C28.7398 17.5088 28.888 17.4284 29.0802 17.3605C29.2397 17.3045 29.5986 17.1982 29.8778 17.125C30.1569 17.0518 30.5322 16.9297 30.7116 16.8536C30.8911 16.7775 31.1278 16.6913 31.2373 16.6618C31.3468 16.6328 31.5592 16.6076 31.7086 16.6062ZM29.6512 24.3362C29.5566 24.3829 29.4087 24.4999 29.3227 24.5965C29.2368 24.6931 29.0958 24.9175 29.0091 25.0952C28.9225 25.273 28.8021 25.5717 28.7423 25.7594C28.6821 25.9472 28.5592 26.3996 28.469 26.7647C28.3787 27.1299 28.2456 27.6228 28.1731 27.8598C28.1006 28.0968 27.9806 28.4199 27.9063 28.5779C27.8323 28.7358 27.7167 28.9459 27.65 29.0446C27.5833 29.1434 27.4843 29.2726 27.4296 29.3318C27.344 29.4245 27.3277 29.4776 27.3139 29.7088C27.3005 29.935 27.2617 30.0672 27.071 30.5346C26.9463 30.8405 26.8346 31.1719 26.8227 31.2706C26.8031 31.4358 26.81 31.4581 26.9075 31.5496C26.9775 31.615 27.0695 31.6566 27.1769 31.671C27.2668 31.6828 27.4216 31.6857 27.5213 31.6774C27.6511 31.6663 27.8671 31.5841 28.2826 31.387C28.6016 31.2358 28.9613 31.0911 29.0816 31.0656C29.2354 31.033 29.3619 30.9741 29.5076 30.8667C29.6215 30.7827 29.7882 30.6211 29.8778 30.5077C29.9677 30.3942 30.1007 30.1881 30.174 30.0499C30.2468 29.9117 30.3534 29.6611 30.41 29.4934C30.4669 29.3257 30.5456 29.0184 30.5847 28.8112C30.6239 28.6041 30.6725 28.2644 30.6931 28.0573C30.7134 27.8501 30.7298 26.9773 30.729 26.1185C30.7283 25.2259 30.7127 24.4989 30.6924 24.422C30.6732 24.3481 30.633 24.2633 30.6029 24.2335C30.5652 24.1962 30.4789 24.1808 30.3219 24.1833C30.1972 24.1854 30.034 24.2016 29.9594 24.2192C29.8847 24.2371 29.7458 24.2896 29.6512 24.3362Z" fill="white"></path></g></svg>